<svg width="151" height="47" viewBox="0 0 151 47" fill="none" xmlns="http://www.w3.org/2000/svg">
<g id="Layer 1">
<path id="&#60;Compound Path&#62;" fill-rule="evenodd" clip-rule="evenodd" d="M79.1856 11.8205C79.1856 13.5091 77.8164 14.8631 76.143 14.8631C74.4543 14.8631 73.1004 13.5091 73.1004 11.8205C73.1004 10.1318 74.4087 8.77788 76.143 8.77788C77.8772 8.82351 79.1856 10.1775 79.1856 11.8205ZM67.289 17.2971C67.6237 17.2971 71.077 17.2971 71.077 17.2971V34.8986H67.289C66.9239 34.8986 66.6348 34.6095 66.6348 34.2444V33.4381C66.6348 33.4381 65.2353 35.355 62.1014 35.355C56.9442 35.355 53.0192 31.43 53.0192 26.0903C53.0192 20.7049 56.9898 16.8255 62.1014 16.8255C65.1896 16.8255 66.6348 18.6967 66.6348 18.6967C66.6348 18.6967 66.6348 18.2251 66.6348 17.9513C66.6348 17.6166 66.9239 17.2971 67.289 17.2971ZM66.6348 22.9564C65.9807 21.9675 64.4898 21.0395 62.8468 21.0395C59.8499 21.0395 57.5527 22.9107 57.5527 26.0903C57.5527 29.2698 59.8499 31.1562 62.8468 31.1562C64.5355 31.1562 65.935 30.2586 66.6348 29.2241V22.9564ZM73.8914 17.2971H78.3793V34.8986H73.8914V17.2971ZM150.048 26.0903C150.048 31.43 146.077 35.3702 140.965 35.3702C137.877 35.3702 136.432 33.4381 136.432 33.4381V34.2444C136.432 34.5639 136.143 34.8986 135.778 34.8986C135.443 34.8986 131.975 34.8986 131.975 34.8986V8.82351H136.478V18.6967C136.478 18.6967 137.923 16.8255 141.011 16.8255C146.077 16.8255 150.048 20.7657 150.048 26.0903ZM145.56 26.0446C145.56 22.8651 143.263 20.9939 140.266 20.9939C138.668 20.9939 137.177 21.9827 136.478 22.9107V29.1785C137.177 30.213 138.531 31.1105 140.266 31.1105C143.263 31.1105 145.56 29.2393 145.56 26.0446ZM129.647 24.4625V34.9442H125.144V24.9797C125.144 22.074 124.216 20.9026 121.675 20.9026C120.321 20.9026 118.922 21.6024 118.024 22.6369V34.8986H113.536V17.2971H117.096C117.477 17.2971 117.75 17.6166 117.75 17.9513V18.6967C119.059 17.3428 120.793 16.8255 122.527 16.8255C124.495 16.8255 126.133 17.3884 127.441 18.5142C129.038 19.8225 129.647 21.5111 129.647 24.4625ZM111.665 26.0903C111.665 31.43 107.679 35.3702 102.583 35.3702C99.4949 35.3702 98.0497 33.4381 98.0497 33.4381V34.2444C98.0497 34.5639 97.7606 34.8986 97.3955 34.8986C97.0608 34.8986 93.5922 34.8986 93.5922 34.8986V8.82351H98.0953V18.6967C98.0953 18.6967 99.5405 16.8255 102.629 16.8255C107.74 16.8255 111.711 20.7657 111.665 26.0903ZM107.177 26.0446C107.177 22.8651 104.88 20.9939 101.883 20.9939C100.286 20.9939 98.7951 21.9827 98.0953 22.9107V29.1785C98.7951 30.213 100.149 31.1105 101.883 31.1105C104.88 31.1105 107.177 29.2393 107.177 26.0446ZM89.7129 16.8255C91.0669 16.8255 91.7667 17.069 91.7667 17.069V21.2221C91.7667 21.2221 88.0243 19.9594 85.6815 22.6369V34.9442H81.1937V17.2971C81.1937 17.2971 84.6622 17.2971 84.9817 17.2971C85.362 17.2971 85.6359 17.6166 85.6359 17.9513V18.6967C86.4878 17.7231 88.3133 16.8255 89.7129 16.8255ZM43.4655 38.3063C42.9482 41.7748 40.6511 44.7718 37.3803 46.0801C36.2089 46.5974 34.9006 46.8255 33.5923 46.8255C33.2119 46.8255 32.7403 46.7799 32.3752 46.7343C30.8235 46.5517 29.2413 46.0345 27.6896 45.1521C25.8184 44.072 23.9472 42.5203 21.8935 40.284C19.8245 42.5203 17.9989 44.072 16.0821 45.1521C14.5456 46.0345 12.9482 46.5517 11.3965 46.7343C11.0314 46.7799 10.5598 46.8255 10.1795 46.8255C8.87115 46.8255 7.60848 46.5974 6.39144 46.0801C3.16628 44.7718 0.823486 41.8205 0.306244 38.3063C0.0780496 36.6328 0.260605 34.9898 0.869125 33.2556C1.10239 32.647 1.33566 32.0842 1.56892 31.5669C1.94925 30.7302 2.31436 29.9391 2.64904 29.1785L2.69468 29.0872C5.91983 22.074 9.43403 14.9543 13.0395 7.94116L13.1764 7.65212C13.5568 6.95232 13.9371 6.20688 14.3022 5.46145C14.7738 4.60952 15.291 3.72717 15.9908 2.87524C17.5273 1.09532 19.6419 0.0760498 21.9847 0.0760498C24.2819 0.0760498 26.4269 1.09532 27.9178 2.96652C28.6785 3.81844 29.1348 4.7008 29.6064 5.55272C29.9868 6.29816 30.3519 7.0436 30.7322 7.74339L30.8691 8.03244C34.5202 15.0456 37.9888 22.1653 41.214 29.1785L41.2596 29.2393C41.5943 29.9848 41.9746 30.7759 42.3397 31.6126C42.5831 32.1298 42.8113 32.7383 43.0395 33.3012C43.648 35.0355 43.8458 36.6785 43.4655 38.3063ZM40.286 34.3357C40.149 33.8641 39.9056 33.3925 39.6774 32.8296C39.2971 32.0842 38.9776 31.2475 38.5973 30.502V30.4564C35.3722 23.4736 31.9036 16.3539 28.3438 9.3864L28.2069 9.11256C27.8265 8.39755 27.4614 7.65212 27.0811 6.95232C26.7008 6.20688 26.29 5.50708 25.7728 4.89857C24.7839 3.7728 23.4756 3.16429 22.0304 3.16429C20.5699 3.16429 19.2616 3.7728 18.288 4.89857C17.7707 5.50708 17.3448 6.20688 16.9797 6.95232C16.5993 7.65212 16.219 8.39755 15.8539 9.11256L15.7018 9.3864C12.1115 16.3083 8.64296 23.428 5.41781 30.3955L5.35695 30.502C4.99184 31.2931 4.61152 32.0842 4.29205 32.8296C4.04864 33.3925 3.82044 33.8641 3.68353 34.3357C3.21192 35.644 3.12065 36.8154 3.25756 37.9868C3.59225 40.4209 5.22004 42.5203 7.5172 43.4635C8.59732 43.8894 9.81436 44.072 11.077 43.9351C12.2484 43.7829 13.4198 43.4178 14.6369 42.718C16.3103 41.7748 18.0446 40.3296 19.9614 38.1694C16.9188 34.3813 15.002 30.8671 14.3022 27.7789C13.9371 26.3793 13.8762 25.0253 14.074 23.8083C14.2565 22.6369 14.6825 21.5568 15.3367 20.6136C16.7819 18.5598 19.216 17.2971 21.9391 17.2971C24.647 17.2971 27.0811 18.5142 28.5263 20.6136C29.1957 21.5568 29.6064 22.6369 29.8042 23.8083C29.9411 25.0253 29.8955 26.3337 29.5608 27.7789C28.861 30.8671 26.9898 34.3357 23.9016 38.1237C25.8641 40.284 27.5527 41.7292 29.2413 42.6724C30.4584 43.3722 31.6298 43.7373 32.786 43.8894C34.003 44.0264 35.22 43.8894 36.3458 43.4178C38.643 42.4746 40.286 40.3752 40.6054 37.9412C40.8032 36.7241 40.6511 35.5527 40.286 34.3357ZM26.6551 27.0335C26.8985 25.999 26.9442 25.0253 26.8073 24.1734C26.7008 23.428 26.4269 22.7738 26.0466 22.2109C25.2099 20.9026 23.6734 20.1572 21.9391 20.1572C20.2048 20.1572 18.6987 20.9483 17.8164 22.2109C17.4361 22.7738 17.1622 23.428 17.0709 24.1734C16.9188 25.0253 16.9797 25.9533 17.2079 27.0335C17.7707 29.5588 19.4137 32.5558 21.9391 35.7353C24.4645 32.5101 26.0922 29.5132 26.6551 27.0335Z" fill="#F05B61"/>
</g>
</svg>
