<svg width="151" height="26" viewBox="0 0 151 26" fill="none" xmlns="http://www.w3.org/2000/svg">
<g id="Capa 1">
<g id="&#60;Group&#62;">
<path id="&#60;Path&#62;" d="M129.919 6.90327C129.947 6.86206 129.988 6.8758 130.015 6.8758C130.675 6.88954 131.334 6.83459 131.993 6.90327C132.639 6.98569 133.298 7.34283 133.477 8.1258C133.491 8.22195 133.532 8.31811 133.546 8.41426C133.573 8.49668 133.601 8.56536 133.697 8.45547C134.068 8.05712 134.452 7.6725 134.919 7.3703C135.537 6.97195 136.21 6.71096 136.966 6.60107C137.474 6.53239 137.982 6.54613 138.491 6.62855C139.768 6.83459 140.743 7.49393 141.348 8.66151C141.499 8.94997 141.499 8.94997 141.691 8.70272C142.222 8.00675 142.882 7.47104 143.669 7.09558C144.191 6.84833 144.754 6.68349 145.331 6.60107C145.867 6.53239 146.389 6.54613 146.911 6.62855C148.449 6.84833 149.562 7.63129 150.125 9.12855C150.345 9.71921 150.455 10.3236 150.524 10.9555C150.524 10.9829 150.524 11.0104 150.551 11.0379C150.551 14.2155 150.551 17.3978 150.551 20.5846C149.892 20.5846 149.232 20.5983 148.573 20.5709C148.051 20.5571 147.543 20.4472 147.172 20.0077C146.911 19.6917 146.787 19.3209 146.787 18.9088C146.774 16.8346 146.774 14.7604 146.774 12.6862C146.774 12.178 146.76 11.6698 146.636 11.1615C146.499 10.5709 146.142 10.1176 145.4 10.0763C144.26 10.0214 143.477 10.5709 142.873 11.4637C142.529 12.0132 142.351 12.6176 142.213 13.2357C142.103 13.7027 142.076 14.1835 142.076 14.6643C142.076 16.5736 142.076 18.4829 142.09 20.3785C142.09 20.5571 142.035 20.5846 141.87 20.5846C140.753 20.5846 139.631 20.5846 138.504 20.5846C138.367 20.5846 138.298 20.5709 138.298 20.3923C138.307 17.7732 138.312 15.1496 138.312 12.5214C138.298 11.9994 138.257 11.4774 138.051 10.9692C137.735 10.2687 137.144 10.0214 136.43 10.0763C135.647 10.1176 135.07 10.5434 134.617 11.1615C134.219 11.711 133.971 12.3428 133.807 13.0159C133.669 13.634 133.614 14.2659 133.614 14.9115C133.614 16.7384 133.614 18.5654 133.614 20.3923C133.628 20.5571 133.573 20.5846 133.422 20.5846C132.296 20.5846 131.174 20.5846 130.057 20.5846C129.905 20.5846 129.851 20.5571 129.851 20.3923C129.864 18.7027 129.851 17.0132 129.851 15.3236C129.851 15.2687 129.837 15.2137 129.878 15.145C129.905 15.1725 129.905 15.2 129.905 15.2412C129.905 16.9628 129.901 18.689 129.892 20.4198C129.892 20.4472 129.933 20.4198 129.919 20.4335C129.91 20.4335 129.905 20.4289 129.905 20.4198C129.892 20.3648 129.905 20.3099 129.905 20.2549C129.905 15.8776 129.905 11.4958 129.905 7.10932C129.905 7.04063 129.878 6.97195 129.919 6.90327Z" fill="#009CD5"/>
<path id="&#60;Path&#62;_2" d="M62.0621 0.969208C62.323 1.05163 62.6115 1.12031 62.8588 1.27141C63.6829 1.73844 64.1225 2.69998 63.9714 3.63404C63.8066 4.56811 63.0923 5.30987 62.1719 5.50217C60.9082 5.74943 59.7132 4.95272 59.4659 3.64778C59.2324 2.39778 60.0566 1.24393 61.2791 1.01042C61.3066 0.99668 61.3478 1.01042 61.3752 0.969208C61.6042 0.969208 61.8331 0.969208 62.0621 0.969208Z" fill="#2D3D83"/>
<path id="&#60;Path&#62;_3" d="M58.7791 20.5846C57.5428 20.5571 56.334 20.6258 55.1252 20.5571C54.4522 20.5159 53.9439 20.1725 53.5868 19.6093C53.2022 18.9912 52.8862 18.3181 52.5428 17.6725C52.1124 16.8758 51.6866 16.0745 51.2654 15.2687C51.1555 15.0351 50.9769 14.939 50.7296 14.9115C50.5648 14.884 50.3862 14.8703 50.2077 14.8703C49.9329 14.884 49.9604 14.8291 49.9604 15.1038C49.9604 16.7247 49.9604 18.3502 49.9604 19.9802C49.9604 20.1313 49.9604 20.2824 49.9741 20.4335C49.9741 20.5434 49.9467 20.5846 49.8231 20.5846C48.5959 20.5754 47.3688 20.5754 46.1417 20.5846C46.0318 20.5846 46.0044 20.5571 46.0044 20.4472C46.0181 20.2687 46.0044 20.0901 46.0044 19.9115C46.0044 13.8676 46.0044 7.82818 46.0044 1.79338C46.0044 1.51865 45.9769 1.54612 46.2379 1.55986C46.9522 1.55986 47.6665 1.53239 48.3807 1.58733C49.2049 1.64228 49.6994 2.01316 49.8917 2.72744C49.9467 2.96096 49.9604 3.20821 49.9604 3.45546C49.9604 6.03788 49.9604 8.6203 49.9604 11.2027C49.9604 11.45 49.9604 11.45 50.2214 11.45C50.4274 11.45 50.6335 11.4362 50.8395 11.4225C51.1692 11.395 51.4165 11.2714 51.6088 10.9692C52.4604 9.63678 53.3258 8.30437 54.1912 6.97195C54.2461 6.87579 54.3011 6.83459 54.411 6.83459C55.8121 6.83459 57.2132 6.83459 58.6143 6.83459C58.6417 6.83459 58.6692 6.83459 58.7241 6.84832C58.6143 7.01316 58.5181 7.16426 58.422 7.30162C57.2956 8.97744 56.1738 10.6487 55.0566 12.3154C54.878 12.5763 54.672 12.8236 54.4522 13.0571C54.411 13.0983 54.356 13.1258 54.4247 13.1945C54.9467 13.7027 55.2214 14.3621 55.5236 14.9802C56.4027 16.711 57.4329 18.3593 58.4357 20.0077C58.5456 20.1862 58.6555 20.3648 58.7791 20.5846Z" fill="#2D3D83"/>
<path id="&#60;Path&#62;_4" d="M69.9192 8.38679C70.1527 8.18074 70.3588 7.94723 70.5786 7.76866C71.5264 6.98569 72.6253 6.58734 73.8341 6.53239C74.672 6.50492 75.4961 6.5736 76.2928 6.8758C77.5428 7.34283 78.3396 8.26316 78.7379 9.54064C78.9577 10.2412 79.0401 10.9555 79.0538 11.6835C79.0538 12.961 79.0538 14.2522 79.0538 15.5296C79.0538 17.1322 79.0584 18.7394 79.0676 20.3511C79.0676 20.6121 79.095 20.5846 78.834 20.5846C78.161 20.5709 77.4879 20.5983 76.8286 20.5571C75.7846 20.4747 75.1665 19.8566 75.1253 18.8126C75.084 17.7961 75.1115 16.7934 75.1115 15.7769C75.0978 14.6368 75.1115 13.4967 75.0978 12.3566C75.0978 12.0132 75.0703 11.6698 74.9879 11.3401C74.7956 10.5846 74.3148 10.2274 73.5456 10.2C72.0071 10.145 70.6335 11.0379 70.1665 12.8511C70.0566 13.2906 70.0016 13.7394 70.0016 14.1972C70.0016 16.2485 70.0016 18.3044 70.0016 20.3648C70.0016 20.5296 69.9742 20.5846 69.7956 20.5846C68.6143 20.5754 67.4375 20.5754 66.2654 20.5846C66.1143 20.5846 66.0731 20.5434 66.0731 20.3923C66.0731 16.3905 66.0731 12.3932 66.0731 8.40053C66.0731 7.92433 66.0731 7.44814 66.0731 6.97195C66.0731 6.88954 66.0593 6.82085 66.1692 6.83459C66.8698 6.84833 67.5703 6.79338 68.2709 6.86206C69.0401 6.94448 69.6994 7.3291 69.878 8.26316C69.8917 8.30437 69.9055 8.34558 69.9192 8.38679Z" fill="#2D3D83"/>
<path id="&#60;Path&#62;_5" d="M113.065 10.4747C113.065 10.8044 113.051 11.1203 113.065 11.45C113.065 11.5599 113.037 11.6148 112.914 11.6148C112.282 11.6011 111.664 11.6286 111.032 11.6011C110.359 11.5736 109.837 11.2302 109.644 10.5159C109.576 10.2275 109.315 10.1038 109.068 10.0214C107.763 9.56812 106.155 9.98021 105.263 11.0516C104.878 11.5187 104.631 12.0544 104.493 12.6313C104.342 13.2769 104.315 13.9225 104.452 14.5681C104.672 15.722 105.304 16.5873 106.375 17.1093C107.186 17.4939 108.037 17.6038 108.903 17.4665C109.782 17.3291 110.551 16.9445 111.252 16.4088C111.554 16.189 111.856 15.9417 112.103 15.667C112.172 15.5846 112.199 15.5709 112.254 15.667C112.758 16.5004 113.262 17.3337 113.765 18.167C113.82 18.2632 113.793 18.3319 113.724 18.4143C113.257 18.95 112.694 19.3758 112.09 19.7467C111.43 20.1588 110.73 20.4472 109.974 20.6395C108.93 20.9005 107.886 20.9417 106.815 20.8181C105.688 20.667 104.644 20.3099 103.697 19.6917C102.447 18.8813 101.554 17.7687 101.032 16.3676C100.688 15.4472 100.537 14.4994 100.565 13.5242C100.62 11.6286 101.265 9.96647 102.639 8.62032C103.436 7.85109 104.37 7.30164 105.427 6.97196C106.21 6.72471 106.993 6.58735 107.804 6.57361C108.903 6.5324 109.974 6.71098 110.991 7.1368C111.732 7.45273 112.392 7.89229 112.79 8.64779C112.973 8.99577 113.065 9.37123 113.065 9.77416C113.051 10.0077 113.065 10.2412 113.065 10.4747Z" fill="#009CD5"/>
<path id="&#60;Path&#62;_6" d="M59.9055 13.7165C59.9055 11.4729 59.9055 9.23387 59.9055 6.99944C59.9055 6.91702 59.878 6.8346 60.0153 6.8346C60.7434 6.84834 61.4577 6.80713 62.1719 6.86208C63.1197 6.94449 63.7104 7.53515 63.8066 8.48296C63.8249 8.65695 63.8294 8.83094 63.8203 9.00493C63.8203 12.7961 63.8249 16.5919 63.834 20.3923C63.834 20.5434 63.7928 20.5846 63.628 20.5846C62.4558 20.5754 61.2837 20.5754 60.1115 20.5846C59.9329 20.5846 59.9192 20.5434 59.9192 20.3786C59.9192 18.1533 59.9192 15.9326 59.9192 13.7165C59.91 13.7165 59.9055 13.7165 59.9055 13.7165Z" fill="#2D3D83"/>
<path id="&#60;Path&#62;_7" d="M97.6527 20.7357C96.4439 20.7769 95.3588 19.7329 95.3588 18.4417C95.3725 17.1505 96.4302 16.1615 97.639 16.1478C98.9027 16.1478 99.9604 17.2192 99.9467 18.4555C99.9467 19.678 98.9165 20.7769 97.6527 20.7357Z" fill="#009CD5"/>
<path id="&#60;Path&#62;_8" d="M93.8203 19.8978C93.7791 19.7879 93.7928 19.678 93.7928 19.5681C93.7928 15.4106 93.7928 11.2485 93.7928 7.08186C93.7928 6.8346 93.7928 6.8346 93.5456 6.8346C92.9687 6.8346 92.3963 6.8346 91.8286 6.8346C91.8698 6.77966 91.9384 6.80713 91.9934 6.80713C92.5566 6.7934 93.1198 6.80713 93.6829 6.7934C93.7928 6.7934 93.8478 6.82087 93.8478 6.95823C93.8386 11.189 93.834 15.4198 93.834 19.6505C93.834 19.733 93.8203 19.8154 93.8203 19.8978Z" fill="#2C3664"/>
<path id="&#60;Path&#62;_9" d="M129.919 6.90326C129.919 11.4362 129.919 15.9692 129.919 20.5434C129.864 20.4472 129.878 20.3923 129.878 20.3236C129.878 18.6752 129.878 17.0315 129.878 15.3923C129.878 15.3099 129.878 15.2274 129.878 15.145C129.878 13.5241 129.878 11.8987 129.878 10.2686C129.869 9.23385 129.869 8.19447 129.878 7.15051C129.878 7.06809 129.837 6.97194 129.919 6.90326Z" fill="#008CAA"/>
<g id="&#60;Group&#62;_2">
<path id="&#60;Compound Path&#62;" fill-rule="evenodd" clip-rule="evenodd" d="M13.6417 13.7989C13.9302 15.145 13.7791 16.45 13.106 17.6588C12.4192 18.8813 11.3478 19.6231 10.0428 20.0763C9.1637 20.3785 8.24337 20.5022 7.30931 20.5022C5.15729 20.5113 3.0007 20.5113 0.839528 20.5022C0.775425 20.5113 0.706744 20.5159 0.633484 20.5159C0.633484 14.7558 0.633484 9.00034 0.633484 3.24942C0.729638 2.91975 0.839528 2.60382 1.05931 2.3291C1.45766 1.83459 1.97964 1.5736 2.61151 1.5736C4.1637 1.55986 5.72964 1.54613 7.28184 1.5736C8.46315 1.5736 9.60326 1.79338 10.6472 2.3703C12.1307 3.20822 12.9274 4.48569 13.0236 6.18899C13.0923 7.38404 12.8038 8.46921 12.0758 9.43074C11.8423 9.74668 11.5538 10.0214 11.2379 10.2824C11.1555 10.3511 11.073 10.4198 10.9769 10.5022C11.128 10.5846 11.2516 10.667 11.389 10.7357C12.6252 11.395 13.3533 12.439 13.6417 13.7989ZM4.28733 9.05986C4.28733 9.18349 4.3148 9.2247 4.43843 9.2247C5.3725 9.2247 6.29283 9.2247 7.21315 9.2247C7.84502 9.21096 8.40821 9.00492 8.8203 8.49668C9.3148 7.85107 9.42469 7.10931 9.27359 6.32635C9.09502 5.43349 8.50436 4.8703 7.59777 4.73294C6.88348 4.62305 6.14173 4.66426 5.42744 4.69173C4.67195 4.73294 4.32854 5.13129 4.30107 5.88679C4.28733 6.39503 4.30107 6.91701 4.30107 7.43899C4.29191 7.43899 4.28733 7.43899 4.28733 7.43899C4.28733 7.9747 4.30107 8.52415 4.28733 9.05986ZM9.64447 13.2632C9.1637 12.4802 8.42195 12.1917 7.55656 12.1643C6.86975 12.1505 6.18293 12.1643 5.50986 12.1643C4.74063 12.1643 4.3148 12.5626 4.30107 13.3318C4.28733 13.95 4.30107 14.5681 4.30107 15.2C4.29191 15.2 4.28733 15.2 4.28733 15.2C4.28733 15.8502 4.28733 16.5003 4.28733 17.1505C4.28733 17.2604 4.3148 17.2879 4.42469 17.2879C5.50986 17.2879 6.58129 17.3016 7.66645 17.2879C8.38074 17.2742 9.02634 17.0269 9.47964 16.4362C10.139 15.6121 10.2077 14.1698 9.64447 13.2632Z" fill="#2D3D83"/>
<path id="&#60;Compound Path&#62;_2" fill-rule="evenodd" clip-rule="evenodd" d="M93.8203 6.98569C93.8066 7.0269 93.8203 7.05438 93.8203 7.09558C93.8203 11.2897 93.8203 15.4839 93.8203 19.678C93.8203 19.7467 93.8203 19.8291 93.8203 19.8978C93.7379 21.45 93.2159 22.8236 92.1033 23.9225C91.1967 24.8154 90.084 25.3373 88.8615 25.6533C88.3945 25.7632 87.9275 25.8456 87.4604 25.8731C87.4192 25.8731 87.378 25.8731 87.3505 25.9005C86.856 25.9005 86.3615 25.9005 85.867 25.9005C85.5511 25.8593 85.2214 25.8181 84.8917 25.7632C83.7654 25.5709 82.6939 25.2275 81.6775 24.678C81.5676 24.6231 81.5401 24.5681 81.595 24.4445C81.8286 23.8676 82.0621 23.2769 82.2956 22.6862C82.3231 22.6313 82.3505 22.5718 82.378 22.5077C82.6802 21.8895 83.1335 21.6835 83.8066 21.8758C84.356 22.0269 84.8917 22.2192 85.4549 22.3016C86.4851 22.4527 87.4879 22.4802 88.4494 22.0406C89.3423 21.6286 89.7956 20.9143 89.8917 19.9527C89.9192 19.7192 89.933 19.472 89.9055 19.2247C89.8643 19.211 89.8505 19.2384 89.8231 19.2522C88.9989 19.939 88.0373 20.2275 86.9934 20.2824C85.4 20.3511 83.9577 19.9527 82.7214 18.9088C81.7187 18.0846 81.0868 17.0132 80.7297 15.7632C80.2214 13.95 80.2489 12.1231 80.922 10.3373C81.7461 8.18075 83.3258 6.8758 85.6335 6.55987C86.9659 6.3813 88.2571 6.5324 89.4522 7.20547C89.7544 7.37031 90.0428 7.59009 90.3176 7.83734C90.606 7.19174 91.1143 6.83459 91.8286 6.83459C91.9934 6.79339 92.172 6.82086 92.3505 6.82086C92.7764 6.80712 93.2159 6.82086 93.6555 6.80712C93.7928 6.80712 93.8341 6.84833 93.8203 6.98569ZM89.9879 13.4143C89.9879 12.906 89.9604 12.439 89.8505 11.9857C89.6582 11.2439 89.3148 10.6258 88.6005 10.2549C88.0923 9.99394 87.5291 9.93899 86.9659 9.96646C85.8945 10.0077 85.1253 10.5159 84.7269 11.5187C84.2873 12.6313 84.3011 13.7714 84.672 14.9115C85.0978 16.2027 86.0456 16.8621 87.4055 16.8483C88.5044 16.8346 89.3286 16.2439 89.6994 15.2412C89.9192 14.6368 89.9879 14.0049 89.9879 13.4143Z" fill="#2D3D83"/>
<path id="&#60;Compound Path&#62;_3" fill-rule="evenodd" clip-rule="evenodd" d="M128.491 14.2659C128.436 14.8291 128.353 15.3786 128.188 15.9143C127.941 16.7384 127.552 17.4894 127.021 18.167C126.265 19.1286 125.318 19.8291 124.177 20.2687C123.01 20.7357 121.801 20.8868 120.551 20.7632C119.301 20.6533 118.133 20.2687 117.09 19.5544C116.128 18.895 115.386 18.0434 114.864 16.9857C114.521 16.2714 114.301 15.5297 114.205 14.7467C114.15 14.3895 114.15 14.0324 114.136 13.689C114.109 12.2467 114.466 10.9143 115.235 9.70548C115.908 8.63405 116.842 7.82361 117.982 7.27416C118.655 6.94449 119.37 6.73845 120.112 6.62856C120.798 6.5324 121.485 6.51867 122.186 6.60108C123.202 6.71097 124.164 6.99944 125.057 7.49394C126.192 8.13497 127.067 9.0324 127.68 10.1862C127.955 10.7082 128.175 11.2577 128.298 11.8346C128.477 12.6313 128.559 13.4417 128.491 14.2659ZM124.397 12.1368C123.93 10.8731 123.051 10.0764 121.664 9.92526C120.702 9.82911 119.837 10.0764 119.109 10.7494C118.312 11.5049 118.024 12.4802 117.982 13.5379C117.955 14.2659 118.092 14.9665 118.408 15.6121C118.738 16.3126 119.246 16.8483 119.96 17.1643C120.661 17.4802 121.403 17.5214 122.144 17.3428C122.886 17.1688 123.477 16.7751 123.916 16.1615C124.452 15.4198 124.644 14.5956 124.644 13.5654C124.672 13.167 124.59 12.645 124.397 12.1368Z" fill="#009CD5"/>
<path id="&#60;Compound Path&#62;_4" fill-rule="evenodd" clip-rule="evenodd" d="M44.4384 12.0132C44.8093 13.7302 44.6582 15.3923 43.8752 16.9582C42.9274 18.895 41.3478 20.0764 39.2461 20.5846C38.6417 20.7357 38.0373 20.7906 37.4055 20.7906C35.7709 20.7769 34.2599 20.3511 32.9412 19.3621C31.5538 18.3044 30.7296 16.917 30.4 15.2274C30.1115 13.7714 30.1939 12.3291 30.7434 10.928C31.5263 8.93624 32.9412 7.59009 34.9741 6.94448C36.9659 6.31261 38.9302 6.40877 40.8121 7.3291C42.7763 8.29064 43.9714 9.88404 44.4384 12.0132ZM40.5923 12.4115C40.1802 11.0379 39.3285 10.1313 37.8725 9.93899C36.5676 9.74668 35.4 10.2687 34.6994 11.395C34.0676 12.4115 33.9714 13.5379 34.2049 14.678C34.5209 16.2989 35.7022 17.384 37.2406 17.439C38.3258 17.4939 39.2461 17.1368 39.9467 16.2851C40.5511 15.5296 40.7571 14.6368 40.7571 13.7027C40.7709 13.2632 40.7159 12.8236 40.5923 12.4115Z" fill="#2D3D83"/>
<path id="&#60;Compound Path&#62;_5" fill-rule="evenodd" clip-rule="evenodd" d="M29.0813 12.1231C29.411 13.7439 29.2736 15.3373 28.5593 16.8346C27.6802 18.7439 26.1829 19.939 24.1637 20.5159C23.4769 20.7082 22.7626 20.7906 22.0483 20.7906C20.1802 20.7769 18.5044 20.2412 17.117 18.9775C15.8945 17.8786 15.2077 16.4912 14.9741 14.8703C14.7544 13.4005 14.8917 11.972 15.4961 10.6121C16.4165 8.56537 18.0099 7.30163 20.1802 6.77965C21.9934 6.34009 23.7791 6.49119 25.4687 7.34284C27.4604 8.33185 28.6555 9.95273 29.0813 12.1231ZM25.1115 12.0819C24.6719 10.8731 23.8066 10.1038 22.5016 9.93899C21.3478 9.78789 20.345 10.1176 19.5895 11.0379C18.9577 11.7934 18.7379 12.7 18.7241 13.6753C18.7241 13.9134 18.7425 14.1514 18.7791 14.3895C18.7928 14.5269 18.8203 14.6505 18.8478 14.7879C19.2324 16.45 20.5511 17.5901 22.3643 17.439C23.4769 17.3428 24.3423 16.8071 24.878 15.8181C25.5236 14.6231 25.5648 13.3593 25.1115 12.0819Z" fill="#2D3D83"/>
</g>
</g>
</g>
</svg>
