<svg width="150" height="33" viewBox="0 0 150 33" fill="none" xmlns="http://www.w3.org/2000/svg">
<g id="Layer 1">
<g id="Page-1">
<g id="Homepage-1">
<g id="Header">
<g id="Logo">
<path id="Fill-1" fill-rule="evenodd" clip-rule="evenodd" d="M0.286395 14.28C0.250595 5.72395 6.15752 2.323 11.3842 2.323C16.969 2.323 22.2315 5.68815 22.2315 13.743C22.2315 22.3707 16.3604 25.6285 11.1336 25.6285C5.54892 25.6285 0.250595 22.0485 0.250595 14.28H0.286395ZM16.1098 14.459C16.1098 6.86954 14.7852 3.71918 11.2052 3.71918C8.05489 3.71918 6.47971 5.90295 6.47971 13.564C6.47971 21.1535 7.6969 24.2681 11.3484 24.2681C14.5704 24.2681 16.1098 22.0843 16.1098 14.459Z" fill="#1C85E8"/>
<path id="Fill-19" fill-rule="evenodd" clip-rule="evenodd" d="M41.6348 15.9268C41.6348 22.6929 37.6969 25.6285 32.2554 25.6285C31.5752 25.6285 30.5012 25.5211 29.7852 25.3063C29.7852 25.3063 29.821 26.1655 29.821 27.3111V31.7144C29.821 31.8576 29.7136 31.965 29.5704 31.965L24.9523 32.502C24.8091 32.502 24.6659 32.3946 24.6659 32.2156V8.6953C24.6659 8.5521 24.7733 8.4447 24.8807 8.4447L29.3914 7.94351C29.5704 7.90771 29.7136 8.05091 29.7136 8.22991L29.642 10.1631H29.821C31.1814 9.0175 33.0072 7.94351 35.2625 7.94351C38.3771 7.94351 41.6348 9.98408 41.6348 15.9268ZM36.3007 17.0366C36.3007 12.3827 34.9045 10.7717 32.4344 10.7717C31.1456 10.7717 30.358 11.1297 29.821 11.3445V23.1583C30.3938 23.8385 31.2888 24.3397 32.3986 24.3397C34.9403 24.3397 36.3007 22.9793 36.3007 17.0366Z" fill="#1C85E8"/>
<path id="Fill-5" fill-rule="evenodd" clip-rule="evenodd" d="M43.568 16.7502C43.568 11.0939 47.7566 7.94351 52.0167 7.94351C56.4558 7.94351 59.2482 10.1273 59.3914 15.8552C59.3914 15.9626 59.3198 16.0342 59.2124 16.0342H48.9021C48.7948 16.0342 48.6873 16.1416 48.6873 16.249C48.8305 21.4041 50.8353 22.8361 54.1289 22.8361C55.7757 22.8361 57.0644 22.4781 58.1384 21.9769C58.21 21.9411 58.3174 21.9769 58.389 22.0485L58.8186 22.5497C58.8902 22.6213 58.8544 22.7287 58.8186 22.8003C57.6014 24.0533 55.2029 25.6285 52.0167 25.6285C46.3962 25.6285 43.568 22.2633 43.568 16.7502ZM48.6873 14.817L54.2363 14.5306C54.2363 10.5927 53.7351 9.1607 51.7661 9.1607C50.1193 9.1607 48.8305 10.7359 48.6873 14.817Z" fill="#1C85E8"/>
<path id="Fill-11" d="M72.7446 7.94351C70.3819 7.94351 68.2339 9.0175 66.5155 10.2347H66.4081L66.4439 8.19411C66.4439 8.01511 66.3365 7.90771 66.1575 7.90771L61.611 8.44471C61.5036 8.44471 61.3962 8.55211 61.3962 8.6953V24.9841C61.3962 25.1273 61.5036 25.2347 61.6468 25.2347H66.3007C66.4439 25.2347 66.5513 25.1273 66.5513 24.9841V11.3803C67.2673 11.2013 68.4487 10.9507 69.5585 10.9507C71.0979 10.9507 71.8138 11.5593 71.8138 13.564V24.9841C71.8138 25.1273 71.9212 25.2347 72.0644 25.2347H76.7542C76.8974 25.2347 77.0048 25.1273 77.0048 24.9841V12.2753C77.0048 9.3755 75.537 7.94351 72.7446 7.94351Z" fill="#1C85E8"/>
<path id="Fill-13" fill-rule="evenodd" clip-rule="evenodd" d="M96.1217 24.8409C96.1217 24.9841 96.0143 25.1273 95.8711 25.1273L91.3962 25.6285C91.2172 25.6643 91.0382 25.5211 91.0382 25.3063L91.1098 23.5163H91.0024C89.5704 24.7335 87.7804 25.6285 85.4893 25.6285C82.2673 25.6285 79.1169 23.3015 79.1169 17.3946C79.1169 10.6285 83.4845 7.94352 88.5322 7.94352C89.4272 7.94352 90.3222 8.08672 91.0024 8.30151C91.0024 8.30151 90.9666 7.08433 90.9666 5.90295V1.35641C90.9666 1.21321 91.074 1.10581 91.1814 1.10581L95.8711 0.568817C96.0501 0.568817 96.2291 0.712015 96.1933 0.891013C96.1575 1.5354 96.1217 3.07478 96.1217 4.75736V24.8409ZM90.9666 10.5927C90.3938 9.91249 89.6062 9.2323 88.4248 9.2323C86.0621 9.2323 84.4511 10.9507 84.4511 16.3206C84.4511 21.4041 85.7399 23.0509 88.21 23.0509C89.5704 23.0509 90.4296 22.5497 90.9666 22.3349V10.5927Z" fill="#1C85E8"/>
<path id="Fill-7" fill-rule="evenodd" clip-rule="evenodd" d="M98.2697 16.8218C98.2697 10.5927 102.673 7.94351 107.076 7.94351C111.802 7.94351 115.919 10.7717 115.919 16.6786C115.919 22.9077 111.551 25.6285 107.076 25.6285C102.351 25.6285 98.2697 22.7645 98.2697 16.8218ZM110.442 17.0008C110.442 10.4137 109.189 9.1965 106.969 9.1965C104.928 9.1965 103.711 10.7001 103.711 16.2848C103.711 22.9435 104.785 24.3755 107.184 24.3755C109.117 24.3755 110.442 23.2299 110.442 17.0008Z" fill="#1C85E8"/>
<path id="Fill-9" fill-rule="evenodd" clip-rule="evenodd" d="M117.637 16.8218C117.637 10.5927 122.076 7.94351 126.444 7.94351C131.169 7.94351 135.286 10.7717 135.286 16.6786C135.286 22.9077 130.919 25.6285 126.444 25.6285C121.754 25.6285 117.637 22.7645 117.637 16.8218ZM129.845 17.0008C129.845 10.4137 128.556 9.1965 126.337 9.1965C124.296 9.1965 123.115 10.7001 123.115 16.2848C123.115 22.9435 124.189 24.3755 126.551 24.3755C128.484 24.3755 129.845 23.2299 129.845 17.0008Z" fill="#1C85E8"/>
<path id="Fill-16" d="M147.351 7.94351C145.489 7.94351 143.628 9.33969 142.625 10.4137H142.482L142.554 8.22991C142.554 8.05091 142.41 7.90771 142.196 7.94351L137.721 8.4447C137.578 8.4447 137.47 8.5521 137.47 8.6953V24.9483C137.47 25.1273 137.613 25.2347 137.792 25.2347H142.339C142.518 25.2347 142.661 25.1273 142.661 24.9483V11.7741C143.091 11.3445 143.842 10.9149 144.451 10.9149C144.737 10.9149 144.916 10.9865 145.131 11.3445C145.74 12.3469 146.241 12.9196 147.637 12.9196C148.89 12.9196 150.036 11.9173 150.036 10.3779C150.036 8.7669 148.926 7.94351 147.351 7.94351Z" fill="#1C85E8"/>
</g>
</g>
</g>
</g>
</g>
</svg>
