<svg width="151" height="33" viewBox="0 0 151 33" fill="none" xmlns="http://www.w3.org/2000/svg">
<g id="layer1">
<g id="Layer1001">
<g id="g220">
<g id="Layer1005">
<path id="path158" fill-rule="evenodd" clip-rule="evenodd" d="M80.3724 32.5741C82.018 32.3396 83.5161 31.8854 84.9969 31.2134C86.2885 30.6273 87.581 29.7512 88.6272 28.8692C89.6866 27.9761 90.6596 26.8718 91.4741 25.7364C94.6181 21.3533 95.3196 14.9165 93.0575 9.9607C91.3519 6.22423 88.9842 3.71342 85.2332 1.77251C84.4021 1.34248 83.3793 0.955599 82.3704 0.681442C81.8131 0.530001 81.2732 0.416004 80.7127 0.326824C78.933 0.0438684 77.2206 0.0447006 75.4412 0.326904C73.8853 0.573691 72.2793 1.07072 70.9197 1.77266C68.6758 2.93103 67.2892 4.01946 65.7895 5.66185C61.6328 10.2141 60.648 17.5486 63.2113 23.1533C63.734 24.2961 65.1224 26.6278 66.0231 27.4278C66.2582 27.6366 66.2816 27.6702 66.4816 27.8879C67.5752 29.0782 69.3256 30.3575 71.1542 31.2169C72.5528 31.8741 74.213 32.3527 75.7803 32.5753C77.3392 32.7967 78.8136 32.7967 80.3724 32.5741Z" fill="#FEDD00"/>
<path id="path160" fill-rule="evenodd" clip-rule="evenodd" d="M131.602 10.6984C131.579 9.60125 131.523 8.796 130.549 8.53139C129.551 8.26039 128.721 8.98857 128.721 9.94624V22.9177C128.721 23.952 129.73 24.6895 130.751 24.2562C131.746 23.8335 131.596 22.634 131.596 21.4458C131.596 19.0234 131.603 16.6002 131.596 14.178C131.593 13.259 131.455 12.8044 132.85 11.8202C133.554 11.3231 134.407 10.8049 135.577 10.8492C138.224 10.9496 138.105 13.183 138.105 15.558C138.105 17.9562 138.04 20.4426 138.102 22.8294C138.12 23.5365 138.267 23.7219 138.66 24.0621C139.023 24.3767 139.554 24.4636 140.068 24.2815C141.123 23.9071 140.979 22.7207 140.979 21.5377C140.979 19.1152 140.982 16.6925 140.979 14.27C140.978 13.2324 140.783 12.9069 142.165 11.8459C142.818 11.3437 143.752 10.8444 144.865 10.8444C148.061 10.8444 147.533 14.2203 147.533 16.9379C147.533 17.6743 147.445 23.0141 147.617 23.4813C148.082 24.7405 150.408 24.8231 150.408 22.7337V13.0741C150.408 5.96712 142.49 8.06467 140.839 11.0576L140.685 10.8146C139.798 9.12189 138.989 8.29032 136.493 8.29032C135.483 8.29032 134.427 8.65132 133.68 9.06677C132.363 9.79908 132.347 10.1066 131.602 10.6984Z" fill="#0064D2"/>
<path id="path162" fill-rule="evenodd" clip-rule="evenodd" d="M28.2587 15.558C28.523 15.1765 28.7047 15.022 29.0353 14.6319C29.2748 14.3493 29.5717 14.0344 29.8004 13.7397L30.6073 12.7974C30.7635 12.6196 30.8573 12.5596 31.0086 12.373C31.1677 12.1767 31.2132 12.0971 31.3859 11.9215C33.4289 9.84355 31.4588 8.08522 29.991 8.31817C29.1607 8.44991 28.5532 9.35209 28.1328 9.86348C27.6199 10.4874 27.0666 11.0695 26.5754 11.7099C26.352 12.0013 23.7912 15.1459 23.4757 15.259V5.7145C23.4758 4.58455 23.6044 3.77922 22.9518 3.06675C21.7742 1.78079 19.419 2.444 19.3809 4.51447C19.3074 8.50517 19.3831 13.1431 19.3831 17.2139C19.3831 18.4546 19.1557 22.5201 19.6729 23.2744C20.1801 24.014 21.0084 24.3613 21.9154 24.1598C22.6848 23.9888 23.3145 23.3212 23.439 22.5465C23.6724 21.0949 23.1207 20.2786 23.7936 19.6937C24.3478 19.2121 24.7177 18.4922 25.3846 18.1121L28.0505 22.0698C28.4367 22.6303 28.9879 23.6117 29.5113 23.9213C30.361 24.424 31.4237 24.2563 31.9967 23.6623C32.5798 23.0579 32.9684 22.166 32.4155 21.201L28.2587 15.558Z" fill="#0064D2"/>
<path id="path164" fill-rule="evenodd" clip-rule="evenodd" d="M37.2314 14.799C37.2118 13.803 37.8864 12.8519 38.3783 12.3811C40.5778 10.2758 44.8415 11.7432 44.7509 14.799H37.2314ZM37.263 17.6147C39.2804 17.3179 46.5989 18.0104 47.739 17.3302C49.1107 16.5118 48.7511 14.7906 48.2003 13.2362C47.255 10.5687 45.2023 8.75173 42.4311 8.25214C38.2025 7.48982 33.9291 10.0607 33.1071 14.6551C31.8826 21.4996 37.6748 25.806 44.3052 24.0176C45.5553 23.6804 47.4461 23.0754 47.2312 21.5616C47.1301 20.8497 46.5907 20.3894 45.891 20.2257C45.0985 20.0401 44.5341 20.503 43.879 20.7344C40.6124 21.8887 37.7848 20.5555 37.263 17.6147Z" fill="#0064D2"/>
<path id="path166" fill-rule="evenodd" clip-rule="evenodd" d="M118.486 10.9364C121.624 10.2875 123.797 12.7926 124.132 15.4974C124.53 18.7091 122.855 21.4566 120.245 21.9311C113.706 23.1203 112.319 12.2112 118.486 10.9364ZM111.563 16.202C111.563 20.9228 114.559 24.5517 119.014 24.5517H119.75C124.122 24.5517 127.222 20.8226 127.195 16.3856C127.129 5.47016 111.563 5.76485 111.563 16.202Z" fill="#0064D2"/>
<path id="path168" fill-rule="evenodd" clip-rule="evenodd" d="M3.13655 8.51108C2.50244 8.54431 0.377306 8.29625 0.40806 10.3147C0.438514 12.307 2.43372 12.0805 3.13655 12.1174C3.39342 13.6965 2.94909 19.0206 3.21844 21.063C3.57343 23.7547 5.79662 24.7414 8.74739 24.3388C10.0485 24.1613 11.1539 23.5043 10.7407 21.9896C10.2555 20.2109 8.69919 21.1708 7.79964 20.4253C6.95619 19.7261 7.26268 17.738 7.26268 16.478C7.26268 15.3656 7.13635 13.0918 7.29486 12.1174C8.09402 12.0755 10.5982 12.5204 10.5873 10.3145C10.5765 8.12451 8.1632 8.55657 7.29486 8.51108C7.1462 7.59717 7.42359 6.2709 7.14462 5.43738C6.52405 3.58279 3.82661 3.74152 3.27288 5.42143C3.01045 6.21773 3.28183 7.618 3.13655 8.51108Z" fill="#0064D2"/>
<path id="path170" fill-rule="evenodd" clip-rule="evenodd" d="M51.1583 8.51111C50.5369 8.54367 48.417 8.29997 48.4505 10.3143C48.4838 12.3068 50.4404 12.0798 51.1583 12.1174C51.4108 13.67 50.9777 18.8763 51.2538 21.05C51.5974 23.7557 53.8208 24.7316 56.7692 24.3405C58.0815 24.1665 59.1987 23.5068 58.776 21.9781C58.2897 20.2189 56.8099 21.1746 55.8171 20.4307C54.9986 19.8174 55.2845 17.5909 55.2845 16.478C55.2845 15.3657 55.1581 13.0919 55.3167 12.1174C56.1599 12.0732 58.6311 12.508 58.6208 10.3142C58.6103 8.10619 56.1294 8.55374 55.3167 8.51111C55.1714 7.61803 55.4428 6.21776 55.1803 5.42146C54.6104 3.69237 51.9004 3.63087 51.3091 5.4374C51.0322 6.28371 51.3076 7.59412 51.1583 8.51111Z" fill="#0064D2"/>
<path id="path172" fill-rule="evenodd" clip-rule="evenodd" d="M97.6012 16.018V16.754C97.6012 20.9702 100.852 24.5517 105.031 24.5517C106.591 24.5517 107.447 24.5243 108.885 23.8301C109.371 23.5958 109.65 23.3933 110.053 23.0661C110.404 22.7809 110.833 22.5667 110.871 21.9084C110.943 20.6589 109.486 20.1963 108.543 20.9112C107.484 21.7139 106.963 21.9977 105.399 21.9977C99.0486 21.9977 98.7959 10.8445 105.583 10.8445C108.472 10.8445 108.53 12.7581 109.991 12.2413C111.114 11.8442 111.466 10.3352 108.891 9.02867C104.539 6.82022 97.6012 9.52802 97.6012 16.018Z" fill="#0064D2"/>
<path id="path174" fill-rule="evenodd" clip-rule="evenodd" d="M12.6044 22.6416C12.848 23.8317 14.4278 24.7505 15.684 23.9112C16.9697 23.0522 16.6462 21.6751 16.6462 19.8818C16.6462 18.391 16.7406 10.7414 16.6146 9.95513C16.4057 8.65179 14.8439 7.82119 13.4766 8.639C12.259 9.36726 12.5523 11.1073 12.5523 12.7062C12.5523 14.1492 12.4524 21.899 12.6044 22.6416Z" fill="#0064D2"/>
</g>
</g>
</g>
</g>
</svg>
