<svg width="151" height="35" viewBox="0 0 151 35" fill="none" xmlns="http://www.w3.org/2000/svg">
<g id="svg4161">
<g id="layer1">
<g id="g3">
<path id="path5" fill-rule="evenodd" clip-rule="evenodd" d="M5.26625 32.7723C3.96297 31.8624 2.90559 30.2395 2.90559 27.3624V19.7641H0.81543V16.8378H2.95477V12.3132H6.20068V16.8378H10.2335V19.7641H6.20068V27.1411C6.20068 28.4936 6.52035 29.3296 6.98756 29.8706C7.65149 30.6329 8.61051 30.805 9.24986 30.805C9.37281 30.805 9.47117 30.805 9.54494 30.7805H9.56953C9.65149 30.7805 9.74986 30.7723 9.86461 30.7559L10.5531 30.5837V33.6821L10.0613 33.7805C9.94658 33.7968 9.79084 33.8132 9.59412 33.8296C9.43018 33.846 9.24986 33.8542 9.05313 33.8542C8.06953 33.8542 6.54494 33.6821 5.26625 32.7723ZM15.3728 33.7067H12.6679V16.7149H15.9138V19.0018C16.2253 18.5755 16.5777 18.1903 16.9712 17.846C17.9302 17.0345 19.0859 16.5427 20.3892 16.5427C20.5531 16.5427 20.7253 16.5509 20.9056 16.5673C21.0695 16.5837 21.2335 16.6165 21.3974 16.6657L21.8154 16.7641V20.0837L21.0777 19.8624C21.0777 19.8378 21.004 19.8378 20.881 19.8378C20.7581 19.8132 20.6105 19.8132 20.463 19.8132C19.0859 19.8132 18.0531 20.5018 17.3154 21.5345C16.381 22.8624 15.9384 24.7804 15.9384 26.428V33.7067H15.3728ZM24.1269 32.6247C23.0941 31.7395 22.4302 30.51 22.4302 28.887C22.4302 25.9854 24.2744 24.4362 26.5367 23.6493C28.6515 22.887 31.1597 22.7886 32.7089 22.7886H33.1023C33.0777 21.5837 32.7826 20.7723 32.2662 20.2313C31.6761 19.6165 30.7908 19.3706 29.7335 19.3706C28.9958 19.3706 28.2581 19.4936 27.5449 19.7395C26.8318 19.9854 26.1433 20.3296 25.5285 20.7723L25.0367 21.1411L24.7171 20.6247L23.7335 18.9772L23.4876 18.5591L23.8564 18.2641C24.5449 17.6739 25.4794 17.1821 26.5613 16.8378C27.5941 16.5182 28.7499 16.3214 29.8564 16.3214C31.9466 16.3214 33.5695 16.9116 34.7007 18.0673C35.8072 19.1985 36.3974 20.846 36.3974 22.9854V33.7067H33.2007V31.9116C32.8318 32.3296 32.3892 32.7231 31.922 33.0427C30.9384 33.6821 29.7335 34.1001 28.4056 34.1001C26.8318 34.1001 25.2581 33.6083 24.1269 32.6247ZM28.2089 26.0837C26.8318 26.5018 25.7499 27.2641 25.7499 28.6903C25.7499 29.3296 26.0449 29.9936 26.5859 30.4608C27.1023 30.9034 27.8154 31.1739 28.7744 31.1739C30.0285 31.1739 31.0367 30.5837 31.7499 29.6985C32.6351 28.6411 33.1023 27.1657 33.1023 25.7886V25.6411H32.758C31.5531 25.6411 29.7089 25.6411 28.2089 26.0837ZM44.5367 33.7067L44.3892 33.3624L38.2171 17.4772L37.922 16.7149H41.463L41.5859 17.0591L46.0121 28.7149V28.7395C46.0285 28.7886 46.0449 28.846 46.0613 28.9116C46.0941 28.846 46.1187 28.7886 46.1351 28.7395V28.7149L50.5367 17.0591L50.6843 16.7149H54.1761L53.881 17.4772L47.7826 33.3624L47.6351 33.7067H44.5367ZM57.1761 31.5673C55.6023 30.0182 54.6679 27.805 54.6679 25.2231C54.6679 22.5427 55.5531 20.3788 57.004 18.8542C58.5531 17.2313 60.7417 16.3214 63.1269 16.3214C65.3892 16.3214 67.1351 17.1575 68.3646 18.4854C69.6925 19.9608 70.3564 22.0018 70.3564 24.2149C70.3564 24.3952 70.3482 24.5837 70.3318 24.7804C70.3318 24.9526 70.3072 25.1493 70.2826 25.346L70.2335 25.8624H58.0613C58.2089 27.3624 58.7744 28.5673 59.6351 29.428C60.6433 30.4608 62.0941 31.0018 63.6679 31.0018C64.4548 31.0018 65.2663 30.8542 66.0285 30.5591C66.8154 30.2395 67.5531 29.7968 68.1433 29.2559L68.6597 28.8132L69.004 29.4034L69.9876 31.0264L70.2335 31.4198L69.8892 31.7395C69.0777 32.4526 68.0695 33.0427 66.9876 33.4608C65.881 33.8542 64.7253 34.1001 63.5941 34.1001C61.0367 34.1001 58.799 33.1657 57.1761 31.5673ZM59.7826 20.428C59.0695 21.0427 58.5531 21.928 58.2581 23.01H66.9876C66.8646 21.8788 66.4712 20.9936 65.881 20.3788C65.1679 19.5919 64.1597 19.2231 63.0531 19.2231C61.8236 19.2231 60.6679 19.6411 59.7826 20.428ZM74.881 33.0919C73.9958 32.4772 73.2826 31.346 73.2826 29.4034V10.3952H76.5777V28.9116C76.5777 29.7968 76.7498 30.2641 76.9958 30.51C77.2171 30.7067 77.5367 30.7559 77.8318 30.7559C77.9056 30.7559 78.004 30.7559 78.0285 30.7559C78.0941 30.7559 78.1679 30.7477 78.2499 30.7313L78.8892 30.6329V33.6821L78.422 33.7805C78.3236 33.7968 78.2007 33.8132 78.0531 33.8296C77.8892 33.8296 77.7171 33.8378 77.5367 33.8542C76.799 33.8542 75.7663 33.7313 74.881 33.0919ZM82.6269 31.4936C81.004 29.8952 80.0203 27.6575 80.0203 25.1247C80.0203 22.6411 81.004 20.4526 82.6269 18.8788C84.2499 17.2804 86.5121 16.3214 88.9958 16.3214C91.504 16.3214 93.7663 17.2804 95.4138 18.8788C97.0122 20.4526 98.0203 22.6411 98.0203 25.1247C98.0203 27.6575 97.0122 29.8952 95.4138 31.4936C93.7663 33.1165 91.504 34.1001 88.9958 34.1001C86.4876 34.1001 84.2499 33.1165 82.6269 31.4936ZM84.9876 21.0427C83.9794 22.0755 83.3646 23.5018 83.3646 25.1247C83.3646 26.8214 83.9794 28.2968 84.9876 29.3296C85.9958 30.387 87.422 31.0018 88.9958 31.0018C90.5941 31.0018 92.0203 30.387 93.0285 29.3296C94.0367 28.2723 94.6515 26.8214 94.6515 25.1247C94.6515 23.5018 94.0367 22.0755 93.0285 21.0427C91.9958 20.01 90.5695 19.3706 88.9958 19.3706C87.422 19.3706 86.0203 20.01 84.9876 21.0427ZM100.922 33.7067V10.3952H104.192V22.7641H105.938L110.537 16.9116L110.709 16.7149H114.742L114.004 17.6247L108.692 24.2395L114.619 32.846L115.209 33.7067H111.25L111.078 33.4608L105.938 25.7886H104.192V33.7067H100.922ZM115.086 28.887C115.086 25.9854 116.93 24.4362 119.192 23.6493C121.307 22.887 123.815 22.7886 125.365 22.7886H125.758C125.733 21.5837 125.438 20.7723 124.922 20.2313C124.332 19.6165 123.447 19.3706 122.389 19.3706C121.651 19.3706 120.914 19.4936 120.201 19.7395C119.488 19.9854 118.774 20.3296 118.184 20.7723L117.668 21.1411L117.373 20.6247L116.389 18.9772L116.143 18.5591L116.488 18.2641C117.201 17.6739 118.135 17.1821 119.217 16.8378C120.25 16.5182 121.406 16.3214 122.512 16.3214C124.602 16.3214 126.225 16.9116 127.356 18.0673C128.463 19.1985 129.053 20.846 129.053 22.9854V33.7067H125.856V31.9116C125.488 32.3296 125.045 32.7231 124.578 33.0427C123.594 33.6821 122.389 34.1001 121.061 34.1001C119.488 34.1001 117.914 33.6083 116.783 32.6247C115.75 31.7395 115.086 30.51 115.086 28.887ZM118.406 28.6903C118.406 29.3296 118.676 29.9936 119.242 30.4608C119.758 30.9034 120.471 31.1739 121.43 31.1739C122.684 31.1739 123.692 30.5837 124.406 29.6985C125.291 28.6411 125.758 27.1657 125.758 25.7886V25.6411H125.414C124.184 25.6411 122.365 25.6411 120.865 26.0837C119.488 26.5018 118.406 27.2641 118.406 28.6903Z" fill="#393839"/>
<g id="g7">
<path id="path9" d="M141.447 18.3624C141.463 18.346 141.479 18.3378 141.496 18.3378C140.635 15.7805 144.201 11.4526 150.815 4.22308C145.471 4.87882 141.34 6.23128 138.422 8.28046C138.701 12.4772 139.709 15.8378 141.447 18.3624Z" fill="#0099C2"/>
<path id="path11" d="M141.447 18.3624C141.463 18.346 141.479 18.3378 141.496 18.3378C141.479 18.2395 141.455 18.1493 141.422 18.0673C140.602 14.9034 140.266 11.2395 140.414 7.07553C139.693 7.45258 139.029 7.85422 138.422 8.28045C138.701 12.4772 139.709 15.8378 141.447 18.3624Z" fill="#007BA5"/>
<path id="path13" d="M143.635 22.0264C145.061 22.7641 146.217 23.1329 147.25 22.9608C140.299 20.2231 137.414 12.8214 138.594 0.755859C136.086 1.24766 134.07 2.4034 132.643 4.29684C131.414 5.96897 131.807 8.08373 132.815 10.887C132.963 11.2559 133.111 13.2968 132.274 14.0591C131.979 14.3296 131.463 14.1083 131.045 13.8378C129.57 13.0018 128.34 13.01 127.356 13.8624C124.651 13.4034 122.692 13.1575 121.479 13.1247C123.201 13.6657 125.217 14.2313 127.455 14.8706C128.414 15.1657 129.225 15.805 129.865 16.8132C131.192 18.8542 134.955 19.9608 138.594 20.4772C139.947 20.6739 141.84 21.1165 143.635 22.0264Z" fill="#009DDA"/>
</g>
</g>
</g>
</g>
</svg>
