<svg width="36" height="26" viewBox="0 0 36 26" fill="none" xmlns="http://www.w3.org/2000/svg">
<g id="logo">
<path d="M0.666672 3.33331C0.666672 1.67646 2.0071 0.333313 3.6606 0.333313C5.31411 0.333313 6.65453 1.67646 6.65453 3.33331V22.6666C6.65453 24.3235 5.31411 25.6666 3.6606 25.6666C2.0071 25.6666 0.666672 24.3235 0.666672 22.6666V3.33331Z" fill="#FF7424"/>
<path d="M1.35833 5.25587C0.351738 3.9414 0.59917 2.05815 1.91098 1.04952C3.22279 0.0408923 5.10223 0.288826 6.10882 1.6033L17.0444 15.8837C18.0509 17.1981 17.8035 19.0814 16.4917 20.09C15.1799 21.0986 13.3005 20.8507 12.2939 19.5362L1.35833 5.25587Z" fill="#FF7424"/>
<path d="M28.022 5.16594C29.0286 3.85147 28.7812 1.96823 27.4693 0.959596C26.1575 -0.0490328 24.2781 0.198901 23.2715 1.51337L12.336 15.7937C11.3294 17.1082 11.5768 18.9914 12.8886 20.0001C14.2004 21.0087 16.0799 20.7608 17.0865 19.4463L28.022 5.16594Z" fill="#FF7424"/>
<path d="M32.7913 11.5142C33.7979 10.1997 33.5505 8.31648 32.2387 7.30785C30.9269 6.29922 29.0474 6.54715 28.0408 7.86162L19.5354 18.9686C18.5288 20.283 18.7763 22.1663 20.0881 23.1749C21.3999 24.1835 23.2793 23.9356 24.2859 22.6211L32.7913 11.5142Z" fill="#FF7424"/>
<path d="M29.3455 20.233C29.3455 21.8898 30.6859 23.233 32.3394 23.233C33.9929 23.233 35.3333 21.8898 35.3333 20.233C35.3333 18.5761 33.9929 17.233 32.3394 17.233C30.6859 17.233 29.3455 18.5761 29.3455 20.233Z" fill="#FF7424"/>
</g>
</svg>
