<svg width="120" height="40" viewBox="0 0 120 40" fill="none" xmlns="http://www.w3.org/2000/svg">
<path d="M3.80584 20.3042V7.5H6.14238L11.157 14.0138H10.0426L14.9494 7.5H17.2859V20.3042H14.8235V10.164L15.7761 10.3874L10.6897 16.8668H10.4021L5.44142 10.3874L6.25023 10.164V20.3042H3.80584Z" fill="#111827"/>
<path d="M20.5495 20.3042L25.1686 7.5H28.332L32.9511 20.3042H30.2911L29.3385 17.5543H24.1621L23.1916 20.3042H20.5495ZM24.8631 15.4919H28.6375L26.4088 9.11556H27.0918L24.8631 15.4919Z" fill="#111827"/>
<path d="M36.2387 20.3042V7.5H41.2174C42.128 7.5 42.9308 7.66041 43.6258 7.98123C44.3327 8.2906 44.8839 8.74891 45.2793 9.35618C45.6748 9.95199 45.8725 10.6796 45.8725 11.5389C45.8725 12.4212 45.6508 13.1717 45.2074 13.7904C44.7761 14.4091 44.189 14.8674 43.4461 15.1653L46.5195 20.3042H43.7516L40.4625 14.6841L42.0441 15.5778H38.6831V20.3042H36.2387ZM38.6831 13.5154H41.2533C41.6966 13.5154 42.0801 13.4352 42.4036 13.2748C42.7271 13.1029 42.9787 12.868 43.1585 12.5701C43.3382 12.2722 43.4281 11.9285 43.4281 11.5389C43.4281 11.1379 43.3382 10.7941 43.1585 10.5077C42.9787 10.2098 42.7271 9.98064 42.4036 9.82023C42.0801 9.64836 41.6966 9.56242 41.2533 9.56242H38.6831V13.5154Z" fill="#111827"/>
<path d="M49.9189 20.3042V7.5H52.3633V20.3042H49.9189Z" fill="#111827"/>
<path d="M56.143 20.3042V18.1559H56.9159C57.491 18.1559 57.9463 18.0012 58.2818 17.6918C58.6293 17.371 58.8031 16.947 58.8031 16.42V7.5H61.2654V16.334C61.2654 17.1246 61.0857 17.8178 60.7262 18.4137C60.3787 19.0095 59.8755 19.4735 59.2165 19.8058C58.5694 20.1381 57.8026 20.3042 56.9159 20.3042H56.143Z" fill="#111827"/>
<path d="M64.142 20.3042L68.7612 7.5H71.9245L76.5437 20.3042H73.8836L72.931 17.5543H67.7547L66.7841 20.3042H64.142ZM68.4556 15.4919H72.23L70.0014 9.11556H70.6843L68.4556 15.4919Z" fill="#111827"/>
<path d="M79.8313 20.3042V7.5H82.2756V18.2418H88.0092V20.3042H79.8313Z" fill="#111827"/>
<path d="M90.2912 20.3042L94.9104 7.5H98.0737L102.693 20.3042H100.033L99.0802 17.5543H93.9039L92.9333 20.3042H90.2912ZM94.6048 15.4919H98.3793L96.1506 9.11556H96.8335L94.6048 15.4919Z" fill="#111827"/>
<path d="M105.98 20.3042V7.5H107.886L115.255 16.9871L114.266 17.1762V7.5H116.711V20.3042H114.787L107.526 10.7483L108.425 10.5593V20.3042H105.98Z" fill="#111827"/>
<path d="M5.51691 32.335V23.5353H2.66992V22.0916H10.0031V23.5353H7.19922V32.335H5.51691Z" fill="#111827"/>
<path d="M11.6948 32.335V24.8965H13.2477V26.3952L13.1039 26.1752C13.2765 25.6894 13.5545 25.3411 13.9379 25.1303C14.3213 24.9103 14.7815 24.8003 15.3183 24.8003H15.7928V26.2165H15.117C14.5802 26.2165 14.144 26.3769 13.8085 26.6977C13.4826 27.0094 13.3196 27.4585 13.3196 28.0452V32.335H11.6948Z" fill="#111827"/>
<path d="M20.6715 32.5C20.1443 32.5 19.6794 32.4129 19.2768 32.2388C18.8838 32.0554 18.577 31.8079 18.3566 31.4963C18.1361 31.1755 18.0258 30.7996 18.0258 30.3688C18.0258 29.9655 18.1169 29.6034 18.299 29.2826C18.4908 28.9618 18.7831 28.6914 19.1761 28.4714C19.5692 28.2514 20.0628 28.0956 20.6571 28.0039L23.3603 27.5777V28.8014L20.9735 29.2001C20.5421 29.2735 20.2258 29.4064 20.0245 29.5989C19.8232 29.7822 19.7225 30.0205 19.7225 30.3138C19.7225 30.598 19.8328 30.8317 20.0532 31.0151C20.2833 31.1892 20.5757 31.2763 20.9303 31.2763C21.3713 31.2763 21.7547 31.1846 22.0806 31.0013C22.4161 30.818 22.675 30.5751 22.8571 30.2726C23.0392 29.9609 23.1303 29.6172 23.1303 29.2414V27.3302C23.1303 26.9635 22.9865 26.6656 22.6989 26.4365C22.4209 26.1982 22.0471 26.079 21.5774 26.079C21.146 26.079 20.7674 26.189 20.4415 26.409C20.1251 26.6198 19.8903 26.8948 19.7369 27.2339L18.3853 26.5877C18.5291 26.2211 18.764 25.9002 19.0899 25.6253C19.4158 25.3411 19.7944 25.1211 20.2258 24.9653C20.6667 24.8095 21.1316 24.7315 21.6205 24.7315C22.234 24.7315 22.7756 24.8415 23.2453 25.0615C23.7246 25.2815 24.0937 25.5886 24.3525 25.9827C24.6209 26.3677 24.7551 26.8169 24.7551 27.3302V32.335H23.2022V30.9876L23.5329 31.0288C23.3508 31.3313 23.1159 31.5925 22.8283 31.8125C22.5503 32.0325 22.2292 32.2021 21.865 32.3213C21.5103 32.4404 21.1125 32.5 20.6715 32.5Z" fill="#111827"/>
<path d="M30.2098 32.335L27.1615 24.8965H28.9301L31.2738 30.9601H30.6268L32.9705 24.8965H34.7535L31.6908 32.335H30.2098Z" fill="#111827"/>
<path d="M40.8075 32.5C40.031 32.5 39.3408 32.3304 38.7369 31.9913C38.1426 31.643 37.6777 31.1755 37.3422 30.5888C37.0067 29.993 36.8389 29.3285 36.8389 28.5951C36.8389 27.8435 37.0067 27.1789 37.3422 26.6015C37.6873 26.024 38.1474 25.5703 38.7226 25.2403C39.2977 24.9011 39.9495 24.7315 40.6781 24.7315C41.2628 24.7315 41.7852 24.8278 42.2453 25.0203C42.7055 25.2128 43.0937 25.4786 43.41 25.8177C43.7264 26.1477 43.966 26.5281 44.129 26.959C44.3015 27.3898 44.3878 27.8481 44.3878 28.3339C44.3878 28.4531 44.383 28.5768 44.3734 28.7051C44.3638 28.8335 44.3446 28.9526 44.3159 29.0626H38.1187V27.8252H43.3956L42.6192 28.3889C42.7151 27.9398 42.6815 27.541 42.5185 27.1927C42.3652 26.8352 42.1255 26.5556 41.7996 26.354C41.4833 26.1432 41.1094 26.0377 40.6781 26.0377C40.2467 26.0377 39.8633 26.1432 39.5278 26.354C39.1923 26.5556 38.9334 26.849 38.7513 27.2339C38.5692 27.6098 38.4973 28.0681 38.5356 28.6089C38.4877 29.113 38.5596 29.553 38.7513 29.9288C38.9526 30.3047 39.2306 30.598 39.5853 30.8088C39.9495 31.0196 40.3617 31.125 40.8219 31.125C41.2916 31.125 41.6894 31.0242 42.0153 30.8226C42.3508 30.6209 42.6144 30.3597 42.8061 30.0388L44.129 30.6576C43.9756 31.0059 43.7359 31.3221 43.41 31.6063C43.0937 31.8813 42.7103 32.1013 42.2597 32.2663C41.8188 32.4221 41.3347 32.5 40.8075 32.5Z" fill="#111827"/>
<path d="M47.4114 32.335V21.9266H49.0362V32.335H47.4114Z" fill="#111827"/>
</svg>
