<svg width="115" height="26" viewBox="0 0 115 26" fill="none" xmlns="http://www.w3.org/2000/svg">
<g id="text">
<path d="M1.80592 13.3042V0.5H4.14246L9.15704 7.01382H8.04269L12.9494 0.5H15.286V13.3042H12.8236V3.16396L13.7762 3.38739L8.68973 9.86684H8.40216L3.4415 3.38739L4.2503 3.16396V13.3042H1.80592Z" fill="white"/>
<path d="M18.5496 13.3042L23.1687 0.5H26.332L30.9512 13.3042H28.2911L27.3385 10.5543H22.1622L21.1916 13.3042H18.5496ZM22.8632 8.49189H26.6376L24.4089 2.11556H25.0919L22.8632 8.49189Z" fill="white"/>
<path d="M34.2388 13.3042V0.5H39.2174C40.1281 0.5 40.9309 0.660411 41.6259 0.981233C42.3328 1.2906 42.884 1.74891 43.2794 2.35618C43.6748 2.95199 43.8725 3.67957 43.8725 4.53891C43.8725 5.42117 43.6509 6.17166 43.2075 6.79039C42.7762 7.40912 42.189 7.86743 41.4461 8.16534L44.5196 13.3042H41.7517L38.4625 7.68411L40.0442 8.57782H36.6832V13.3042H34.2388ZM36.6832 6.5154H39.2534C39.6967 6.5154 40.0802 6.43519 40.4037 6.27478C40.7272 6.10292 40.9788 5.86803 41.1586 5.57012C41.3383 5.27222 41.4282 4.92848 41.4282 4.53891C41.4282 4.13788 41.3383 3.79415 41.1586 3.5077C40.9788 3.20979 40.7272 2.98064 40.4037 2.82023C40.0802 2.64836 39.6967 2.56242 39.2534 2.56242H36.6832V6.5154Z" fill="white"/>
<path d="M47.9189 13.3042V0.5H50.3633V13.3042H47.9189Z" fill="white"/>
<path d="M54.1431 13.3042V11.1559H54.9159C55.4911 11.1559 55.9464 11.0012 56.2819 10.6918C56.6294 10.371 56.8031 9.94704 56.8031 9.41998V0.5H59.2655V9.33404C59.2655 10.1246 59.0858 10.8178 58.7263 11.4137C58.3788 12.0095 57.8756 12.4735 57.2165 12.8058C56.5695 13.1381 55.8026 13.3042 54.9159 13.3042H54.1431Z" fill="white"/>
<path d="M62.1421 13.3042L66.7613 0.5H69.9246L74.5437 13.3042H71.8837L70.9311 10.5543H65.7547L64.7842 13.3042H62.1421ZM66.4557 8.49189H70.2301L68.0014 2.11556H68.6844L66.4557 8.49189Z" fill="white"/>
<path d="M77.8313 13.3042V0.5H80.2757V11.2418H86.0092V13.3042H77.8313Z" fill="white"/>
<path d="M88.2913 13.3042L92.9105 0.5H96.0738L100.693 13.3042H98.0329L97.0803 10.5543H91.904L90.9334 13.3042H88.2913ZM92.6049 8.49189H96.3793L94.1506 2.11556H94.8336L92.6049 8.49189Z" fill="white"/>
<path d="M103.981 13.3042V0.5H105.886L113.255 9.98714L112.266 10.1762V0.5H114.711V13.3042H112.788L105.526 3.74832L106.425 3.55926V13.3042H103.981Z" fill="white"/>
<path d="M3.51699 25.335V16.5353H0.669998V15.0916H8.00315V16.5353H5.1993V25.335H3.51699Z" fill="white"/>
<path d="M9.6949 25.335V17.8965H11.2478V19.3952L11.104 19.1752C11.2766 18.6894 11.5545 18.3411 11.938 18.1303C12.3214 17.9103 12.7815 17.8003 13.3183 17.8003H13.7928V19.2165H13.117C12.5802 19.2165 12.1441 19.3769 11.8086 19.6977C11.4827 20.0094 11.3197 20.4585 11.3197 21.0452V25.335H9.6949Z" fill="white"/>
<path d="M18.6716 25.5C18.1444 25.5 17.6795 25.4129 17.2769 25.2388C16.8838 25.0554 16.5771 24.8079 16.3566 24.4963C16.1362 24.1755 16.0259 23.7996 16.0259 23.3688C16.0259 22.9655 16.117 22.6034 16.2991 22.2826C16.4908 21.9618 16.7832 21.6914 17.1762 21.4714C17.5692 21.2514 18.0629 21.0956 18.6572 21.0039L21.3604 20.5777V21.8014L18.9736 22.2001C18.5422 22.2735 18.2259 22.4064 18.0246 22.5989C17.8233 22.7822 17.7226 23.0205 17.7226 23.3138C17.7226 23.598 17.8328 23.8317 18.0533 24.0151C18.2834 24.1892 18.5757 24.2763 18.9304 24.2763C19.3714 24.2763 19.7548 24.1846 20.0807 24.0013C20.4162 23.818 20.675 23.5751 20.8572 23.2726C21.0393 22.9609 21.1304 22.6172 21.1304 22.2414V20.3302C21.1304 19.9635 20.9866 19.6656 20.699 19.4365C20.421 19.1982 20.0472 19.079 19.5775 19.079C19.1461 19.079 18.7675 19.189 18.4415 19.409C18.1252 19.6198 17.8904 19.8948 17.737 20.2339L16.3854 19.5877C16.5292 19.2211 16.764 18.9002 17.0899 18.6253C17.4159 18.3411 17.7945 18.1211 18.2259 17.9653C18.6668 17.8095 19.1317 17.7315 19.6206 17.7315C20.2341 17.7315 20.7757 17.8415 21.2454 18.0615C21.7247 18.2815 22.0937 18.5886 22.3526 18.9827C22.621 19.3677 22.7552 19.8169 22.7552 20.3302V25.335H21.2023V23.9876L21.533 24.0288C21.3508 24.3313 21.116 24.5925 20.8284 24.8125C20.5504 25.0325 20.2293 25.2021 19.865 25.3213C19.5104 25.4404 19.1126 25.5 18.6716 25.5Z" fill="white"/>
<path d="M28.2099 25.335L25.1616 17.8965H26.9302L29.2739 23.9601H28.6269L30.9706 17.8965H32.7535L29.6909 25.335H28.2099Z" fill="white"/>
<path d="M38.8076 25.5C38.0311 25.5 37.3409 25.3304 36.737 24.9913C36.1427 24.643 35.6778 24.1755 35.3423 23.5888C35.0068 22.993 34.839 22.3285 34.839 21.5951C34.839 20.8435 35.0068 20.1789 35.3423 19.6015C35.6874 19.024 36.1475 18.5703 36.7226 18.2403C37.2978 17.9011 37.9496 17.7315 38.6781 17.7315C39.2629 17.7315 39.7853 17.8278 40.2454 18.0203C40.7055 18.2128 41.0938 18.4786 41.4101 18.8177C41.7264 19.1477 41.9661 19.5281 42.129 19.959C42.3016 20.3898 42.3879 20.8481 42.3879 21.3339C42.3879 21.4531 42.3831 21.5768 42.3735 21.7051C42.3639 21.8335 42.3447 21.9526 42.316 22.0626H36.1187V20.8252H41.3957L40.6193 21.3889C40.7151 20.9398 40.6816 20.541 40.5186 20.1927C40.3652 19.8352 40.1256 19.5556 39.7997 19.354C39.4834 19.1432 39.1095 19.0377 38.6781 19.0377C38.2468 19.0377 37.8633 19.1432 37.5278 19.354C37.1923 19.5556 36.9335 19.849 36.7514 20.2339C36.5693 20.6098 36.4974 21.0681 36.5357 21.6089C36.4878 22.113 36.5597 22.553 36.7514 22.9288C36.9527 23.3047 37.2307 23.598 37.5854 23.8088C37.9496 24.0196 38.3618 24.125 38.8219 24.125C39.2916 24.125 39.6894 24.0242 40.0154 23.8226C40.3509 23.6209 40.6145 23.3597 40.8062 23.0388L42.129 23.6576C41.9757 24.0059 41.736 24.3221 41.4101 24.6063C41.0938 24.8813 40.7103 25.1013 40.2598 25.2663C39.8189 25.4221 39.3348 25.5 38.8076 25.5Z" fill="white"/>
<path d="M45.4114 25.335V14.9266H47.0362V25.335H45.4114Z" fill="white"/>
</g>
</svg>
